<svg width="57" height="46" viewBox="0 0 57 46" fill="none" xmlns="http://www.w3.org/2000/svg">
<path d="M29.3796 12.1258L29.3079 11.013L21.5612 12.476L22.8835 24.2578L28.4064 25.3754L33.3147 20.4735L29.3796 12.1258Z" fill="#8DFF6B"/>
<path d="M30.7371 32.4336L28.4064 25.3754L22.8835 24.2578L21.2949 31.5136L30.7371 32.4336Z" fill="#8DFF6B"/>
<path d="M22.8835 24.2578L21.5612 12.476L14.8271 7.93245L14.4062 7.64847L8.61739 12.7336L13.3297 23.5887L22.8835 24.2578Z" fill="#8DFF6B"/>
<path d="M21.2949 31.5136L22.8835 24.2578L13.3297 23.5887L8.40201 28.5099L10.8328 37.8019L15.9606 37.3484L21.2949 31.5136Z" fill="#8DFF6B"/>
<path d="M43.6364 25.5885L33.3202 20.4853L33.3147 20.4735L28.4064 25.3754L30.7371 32.4336L39.1123 34.5205L43.6364 25.5885Z" fill="#8DFF6B"/>
<path d="M55.2123 24.1746L43.6364 25.5885M43.6364 25.5885L33.3202 20.4853L33.3147 20.4735M43.6364 25.5885L39.1123 34.5205M28.8187 3.42151L29.3079 11.013M28.4064 25.3754L30.7371 32.4336M28.4064 25.3754L22.8835 24.2578M28.4064 25.3754L33.3147 20.4735M33.334 20.4542L33.3147 20.4735M30.7371 32.4336L23.0155 39.9421M30.7371 32.4336L21.2949 31.5136M30.7371 32.4336L39.1123 34.5205M22.8835 24.2578L21.2949 31.5136M22.8835 24.2578L21.5612 12.476M22.8835 24.2578L13.3297 23.5887M21.2949 31.5136L15.9606 37.3484M29.3296 11.0089L29.3079 11.013M21.5612 12.476L29.3079 11.013M21.5612 12.476L14.8271 7.93245M21.5612 12.476L14.4062 7.64847M39.1123 34.5205L39.5626 44.5728M13.3297 23.5887L8.40201 28.5099L10.8328 37.8019L15.9606 37.3484M13.3297 23.5887L8.61739 12.7336M15.9606 37.3484L13.3079 44.9244M2.16304 27.2303L8.33936 28.482M17.9135 1.00025L14.8271 7.93245M29.3079 11.013L29.3796 12.1258L33.3147 20.4735M14.8271 7.93245L14.4062 7.64847M14.4062 7.64847L8.61739 12.7336M1.00003 13.1733L8.61739 12.7336" stroke="#1E491D" stroke-width="2" stroke-linecap="round"/>
</svg>
